<?xml version="1.0" encoding="UTF-8"?>
<!-- 白色版品牌 Logo，仅用于 GitHub README 在深色主题下显示；路径与 web/index.html 内联 SVG 一致，fill 固定为 #ffffff -->
<svg width="256" height="256" viewBox="0 0 256 256" xmlns="http://www.w3.org/2000/svg" role="img" aria-label="DacatDHCP"><g fill="#ffffff"><path d="M72 127L64 136L60 146L60 166L65 183L81 213L92 227L99 230L99 223L91 194L92 178L98 175L103 180L105 188L105 222L106 225L111 229L115 224L120 188L124 177L130 171L138 172L146 183L150 221L155 231L159 228L162 219L164 205L164 182L170 175L174 175L177 178L178 187L165 223L165 229L170 230L177 224L196 191L204 166L205 145L203 136L197 124L190 117L179 111L165 107L149 105L128 105L114 107L97 112L81 120Z"/><path d="M85 56L79 57L69 68L65 76L54 84L35 86L26 92L28 99L35 107L35 114L38 127L41 133L45 136L56 136L67 126L83 115L99 107L112 103L116 100L118 92L115 86L106 77L95 72L89 60Z"/><path d="M226 25L215 25L207 30L198 42L192 56L188 78L188 106L190 112L200 121L214 104L228 83L240 58L242 49L240 36L234 29Z"/><path d="M29 137L25 139L17 148L14 154L14 159L21 145Z"/><path d="M32 141L29 143L24 152L23 161L25 158L25 153Z"/><path d="M128 80L137 78L150 80L153 79L148 77L136 77Z"/><path d="M130 85L138 85L149 89L147 86L140 84Z"/></g></svg>
